<svg version="1.2" xmlns="http://www.w3.org/2000/svg" viewBox="0 0 1212 811" width="1212" height="811"><style>.a{fill:#c6e9fa}.b{fill:#a2ddf8}.c{fill:#fff}.d{fill:#75d0f6}.e{fill:none;stroke:#fff;stroke-linecap:round;stroke-linejoin:round;stroke-width:2}.f{fill:none;stroke:#fff;stroke-linecap:round;stroke-linejoin:round;stroke-width:2;stroke-dasharray:8}</style><g style="opacity:.5;mix-blend-mode:multiply"></g><g style="opacity:.5;mix-blend-mode:multiply"></g><g style="opacity:.5;mix-blend-mode:multiply"></g><g style="opacity:.5;mix-blend-mode:multiply"></g><path class="a" d="m1210.2 231.6c-48-32.9-106.7-52.5-164.9-61-112.6-16.5-233.5 4-324.9 71.9-54.1 40.2-95.6 94.7-134.3 149.8-27.3 39-53.6 78.7-78.9 119.1-22.8 36.4-45.1 73.8-74.9 104.8-72.2 74.9-188.3 104-287.3 71.9-31.7-10.2-61.6-26.2-94.1-33.4-15.1-3.3-31.3-4.4-46.7-2.2v158.5h1206z"/><path class="b" d="m119.8 741.8c-34.1-18.7-75.9-31.1-112.6-23.3v89.3h227.7c-40.9-16-76.3-44.7-115.1-66z"/><path class="b" d="m885.1 482.7c-118.1 39.5-221.5 113.5-316.3 194.3-45.5 38.8-90.1 79.7-142.6 108.5-16.2 8.9-33.3 16.5-51 22.3h832v-325.2c-101.1-40-218.2-34.7-322.1 0.1z"/><path class="a" d="m137.5 643.3c0 5.2-4.2 9.4-9.4 9.4-5.2 0-9.4-4.2-9.4-9.4 0-5.2 4.2-9.4 9.4-9.4 5.2 0 9.4 4.2 9.4 9.4z"/><path class="a" d="m401.2 577.4c0 16.6-13.5 30.1-30.2 30.1-16.6 0-30.1-13.5-30.1-30.1 0-16.6 13.5-30.1 30.1-30.1 16.7 0 30.2 13.5 30.2 30.1z"/><path class="a" d="m480.3 505.8c0 6.3-5.1 11.3-11.3 11.3-6.3 0-11.3-5-11.3-11.3 0-6.2 5-11.3 11.3-11.3 6.2 0 11.3 5.1 11.3 11.3z"/><path class="a" d="m728.9 202.6c0 6.3-5.1 11.3-11.3 11.3-6.3 0-11.3-5-11.3-11.3 0-6.2 5-11.3 11.3-11.3 6.2 0 11.3 5.1 11.3 11.3z"/><path class="a" d="m1175.2 172.5c0 5.2-4.2 9.4-9.4 9.4-5.2 0-9.4-4.2-9.4-9.4 0-5.2 4.2-9.4 9.4-9.4 5.2 0 9.4 4.2 9.4 9.4z"/><path class="c" d="m275 746.9c0 12.5-10.1 22.6-22.6 22.6-12.5 0-22.6-10.1-22.6-22.6 0-12.5 10.1-22.6 22.6-22.6 12.5 0 22.6 10.1 22.6 22.6z"/><path class="c" d="m340.9 718.6c0 7.3-5.9 13.2-13.2 13.2-7.3 0-13.2-5.9-13.2-13.2 0-7.2 5.9-13.1 13.2-13.1 7.3 0 13.2 5.9 13.2 13.1z"/><path class="c" d="m1195.9 294.9c0 11.5-9.3 20.7-20.7 20.7-11.5 0-20.7-9.2-20.7-20.7 0-11.4 9.2-20.7 20.7-20.7 11.4 0 20.7 9.3 20.7 20.7z"/><path class="c" d="m1020.8 204.5c0 5.2-4.3 9.4-9.5 9.4-5.2 0-9.4-4.2-9.4-9.4 0-5.2 4.2-9.4 9.4-9.4 5.2 0 9.5 4.2 9.5 9.4z"/><path class="c" d="m37.7 697.9c0 6.3-5.1 11.3-11.3 11.3-6.2 0-11.3-5-11.3-11.3 0-6.2 5.1-11.3 11.3-11.3 6.2 0 11.3 5.1 11.3 11.3z"/><path class="a" d="m1069.7 688.5c0 7.3-5.9 13.2-13.2 13.2-7.2 0-13.1-5.9-13.1-13.2 0-7.3 5.9-13.2 13.1-13.2 7.3 0 13.2 5.9 13.2 13.2z"/><path class="a" d="m1136.6 710.6c0 12.5-10.1 22.6-22.6 22.6-12.5 0-22.6-10.1-22.6-22.6 0-12.4 10.1-22.6 22.6-22.6 12.5 0 22.6 10.2 22.6 22.6z"/><path class="d" d="m142.4 394.8c-32.9 0-59.4-26.6-59.4-59.4 0-32.9 26.5-59.4 59.4-59.4 32.8 0 59.4 26.5 59.4 59.4 0 32.8-26.6 59.4-59.4 59.4z"/><path class="c" d="m523.9 126v-13h-1.5v5.7h-6.1v-5.7h-1.5v13h1.5v-6.1h6.1v6.1zm14.3-6.4c0-3.9-1.2-6.8-5.5-6.8-4.1 0-5.6 2.9-5.6 6.8 0 3.8 1.3 6.7 5.6 6.7 4.1 0 5.5-2.9 5.5-6.7zm-1.5 0c0 3.3-0.8 5.6-4 5.6-3.1 0-4.1-2.2-4.1-5.6 0-3.5 1-5.7 4.1-5.7 3.1 0 4 2.2 4 5.7zm17.7 6.4v-13h-2.2l-4.2 11-4.3-11h-2.2v13h1.3v-11.4l4.5 11.4h1.2l4.5-11.4v11.4zm11.3 0v-1.1h-5.9v-5h5.3v-1.2h-5.3v-4.6h5.7v-1.1h-7.2v13z"/><path class="c" d="m982.3 269.7c0-1.9-1.5-2.9-3-2.9-1.5 0-3 1-2.9 2.9 0 1.8-0.2 3.8 0.1 5.6q0 1.1 0 2.1c0 1.8 1.4 2.7 2.8 2.7 1.5 0 2.9-0.9 2.8-2.7q0.1-1 0.1-2.1c0.2-1.8 0.1-3.8 0.1-5.6z"/><path class="c" d="m1038.5 295.4c1.4-1.3 1-3 0-4.1-1.1-1.1-2.8-1.5-4.2-0.1-1.3 1.3-2.8 2.6-3.9 4.1q-0.7 0.8-1.4 1.5c-1.3 1.3-1 2.9 0.1 3.9 0.9 1 2.6 1.4 3.9 0.1q0.7-0.7 1.5-1.4c1.4-1.2 2.7-2.7 4-4z"/><path class="c" d="m1060.1 353.4c1.9 0 2.9-1.5 2.9-3 0-1.5-1-3-2.9-2.9-1.9 0-3.8-0.2-5.7 0.1q-1 0-2 0c-1.9 0-2.8 1.4-2.7 2.8-0.1 1.5 0.8 2.9 2.7 2.8q1 0.1 2 0.1c1.9 0.2 3.8 0.1 5.7 0.1z"/><path class="c" d="m925.5 300.8c1.3 1.4 3 1 4.1-0.1 1.1-1.1 1.5-2.8 0.1-4.1-1.4-1.3-2.6-2.8-4.1-4q-0.8-0.7-1.5-1.4c-1.3-1.3-2.9-0.9-3.9 0.1-1 1-1.4 2.6-0.1 3.9q0.7 0.7 1.4 1.5c1.2 1.5 2.7 2.8 4 4.1z"/><path class="e" d="m723.2 765.2q1.9-0.3 3.9-0.7"/><path class="f" d="m725.2 289.1c4.1-14 12.7-26.7 24.1-35.7 7.5-5.9 17.5-10.4 26.5-7.3 4.2 1.4 7.7 4.3 10.7 7.6 4.9 5.6 8.5 13.1 6.8 20.4-1.7 7.2-10.5 12.7-17 9-7.6-18.2-1.6-40 11.1-55.1 12.7-15 31.1-24.2 49.7-30.5 19.6-6.5 41.6-10.2 60.6-2.1 8.7 3.7 16.2 9.5 23.6 15.3 4.3 3.4 9.1 8.5 7 13.5"/><path class="c" d="m626.2 879.9q-1.3 1.4-2.2 2.9l-0.9-0.4c-0.2-0.6-0.7-1.1-1.4-1-0.6 0.1-1.1 0.7-1 1.4 0.1 0.6 0.7 1.1 1.3 1q0.2 0 0.4-0.1l0.9 0.5q-0.8 1.7-1.1 3.5l1.5 0.2c0.5-2.6 1.7-5 3.6-6.9z"/><path class="c" d="m637.2 875.3q-0.5 0-1 0.1l-0.2-1.3c0.4-0.3 0.6-0.8 0.5-1.3 0-0.8-0.8-1.3-1.5-1.2-0.8 0.1-1.4 0.8-1.3 1.6 0.1 0.5 0.4 0.9 0.8 1.1l0.2 1.2q-2.2 0.4-4.2 1.3l0.7 1.4q2.8-1.4 6-1.4 1.5 0 2.9 0.4l0.4-1.5q-1.7-0.4-3.3-0.4z"/><path class="c" d="m650.4 880.4c0.7-0.1 1.1-0.7 1-1.3 0-0.7-0.6-1.2-1.3-1.1-0.6 0.1-1.1 0.6-1.1 1.2l-0.8 0.8q-1.3-1.3-2.8-2.3l-0.8 1.3c2.2 1.4 4 3.4 5.1 5.8l1.4-0.6q-0.8-1.7-1.9-3.1l0.8-0.7q0.2 0 0.4 0z"/><path class="c" d="m636.1 895.7q-1.2 0.1-2.3 0.1c-1.8 0-3.5-0.1-5-0.3-0.8-0.2-1.7-0.4-2.5-0.6 2.1 3.7 6.1 6.2 10.8 6.2 5.7 0 10.5-3.8 11.9-9q-2.1 1.4-5 2.3c-2.3 0.7-5.1 1.2-7.9 1.3z"/><path fill-rule="evenodd" class="c" d="m649.2 888.8q0.1 0.5 0.1 1.1c-2.7 2.4-7.5 4-13.3 4.3-5.3 0.3-9.4-0.5-10.7-1.4q-0.3-1.3-0.3-2.6c0-6.5 5.5-11.8 12.2-11.8 6.1 0 11.3 4.4 12 10.4zm-12.6-1.1c0-2.1-1.7-3.7-3.7-3.7-2.1 0-3.7 1.6-3.7 3.7 0 2 1.6 3.7 3.7 3.7 2 0 3.7-1.7 3.7-3.7zm8.5-0.8c0-1.5-1.3-2.8-2.8-2.8-1.5 0-2.7 1.3-2.7 2.8 0 1.5 1.2 2.7 2.7 2.7 1.5 0 2.8-1.2 2.8-2.7z"/><path class="c" d="m669.2 882.1c-0.6-0.2-1.6-0.6-2.8-0.5-1.1 0.2-1.7 0.7-1.7 2v1.8h4.5v3.4h-4.5v10.9h-3.8v-10.9h-2.7v-3.4h2.7v-1.8c0-3.4 1.8-5.6 5.1-5.6 1.3 0 2.3 0.3 3.2 0.6z"/><path class="c" d="m678.6 888.8q-0.5-0.1-1.1-0.1c-1.7 0-3 1.1-3 3.2v7.8h-3.8v-14.3h3.7v1.5c0.9-1.3 2.3-1.9 4-1.9 0.9 0 1.7 0.2 2.2 0.7z"/><path fill-rule="evenodd" class="c" d="m693.9 892.5c0 0.5 0 1 0 1.3h-10.2c0.4 2.1 1.9 3 3.7 3 1.2 0 2.6-0.5 3.6-1.4l2.3 2.5c-1.7 1.5-3.7 2.2-6.1 2.2-4.4 0-7.5-3-7.5-7.5 0-4.5 3-7.6 7.3-7.6 4.1 0 6.9 3 6.9 7.5zm-10.2-1.3h6.4c-0.4-1.9-1.5-2.9-3.2-2.9-1.8 0-2.9 1.1-3.2 2.9z"/><path fill-rule="evenodd" class="c" d="m709.2 892.5c0 0.5 0 1 0 1.3h-10.2c0.4 2.1 1.9 3 3.7 3 1.2 0 2.6-0.5 3.6-1.4l2.3 2.5c-1.7 1.5-3.7 2.2-6.1 2.2-4.4 0-7.5-3-7.5-7.5 0-4.5 3-7.6 7.3-7.6 4.1 0 6.9 3 6.9 7.5zm-10.2-1.3h6.4c-0.4-1.9-1.5-2.9-3.2-2.9-1.8 0-2.9 1.1-3.2 2.9z"/><path fill-rule="evenodd" class="c" d="m725.9 892.5c0 4.3-3 7.6-6.9 7.6-1.9 0-3.3-0.8-4.2-1.9v7.4h-3.9v-20.2h3.8v1.5c0.9-1.1 2.3-1.9 4.3-1.9 3.9 0 6.9 3.2 6.9 7.5zm-11.3 0c0 2.3 1.5 4 3.7 4 2.2 0 3.7-1.8 3.7-4 0-2.2-1.5-3.9-3.7-3.9-2.2 0-3.7 1.7-3.7 3.9z"/><path class="c" d="m732.1 880.7c0 1.4-1 2.4-2.4 2.4-1.4 0-2.5-1-2.5-2.4 0-1.4 1.1-2.5 2.5-2.5 1.4 0 2.4 1.1 2.4 2.5zm-0.5 19h-3.8v-14.3h3.8z"/><path class="c" d="m738.1 890.5l5.4-5.1h4.7l-7 6.7 7 7.6h-4.7l-5.4-5.8v5.8h-3.9v-21.3h3.9z"/><path fill-rule="evenodd" class="c" d="m474.8 899.6v-2.1c-1 1.4-2.8 2.4-4.8 2.4-3.6 0-6.2-2.8-6.2-7.4 0-4.5 2.5-7.4 6.2-7.4 2 0 3.7 0.9 4.8 2.5v-7.6h2.2v19.6zm0-3.9v-6.4c-0.8-1.2-2.5-2.3-4.2-2.3-2.9 0-4.6 2.4-4.6 5.5 0 3.2 1.7 5.5 4.6 5.5 1.7 0 3.4-1 4.2-2.3z"/><path fill-rule="evenodd" class="c" d="m479.9 892.5c0-4.1 2.9-7.4 6.9-7.4 4.3 0 6.8 3.3 6.8 7.6v0.5h-11.4c0.2 2.7 2 4.9 5.1 4.9 1.6 0 3.2-0.6 4.3-1.8l1.1 1.5c-1.4 1.4-3.3 2.1-5.6 2.1-4.2 0-7.2-3-7.2-7.4zm6.9-5.6c-3 0-4.5 2.5-4.6 4.7h9.3c-0.1-2.1-1.5-4.7-4.7-4.7z"/><path class="c" d="m495.2 897.7l1.2-1.6c0.9 1.1 2.7 2 4.6 2 2.2 0 3.4-1 3.4-2.4 0-3.4-8.8-1.3-8.8-6.6 0-2.1 1.9-4 5.3-4 2.4 0 4.1 0.9 5.2 2l-1 1.6c-0.9-1.1-2.4-1.8-4.2-1.8-2 0-3.2 0.9-3.2 2.2 0 3.1 8.8 1 8.8 6.6 0 2.3-1.9 4.2-5.6 4.2-2.3 0-4.3-0.7-5.7-2.2z"/><path class="c" d="m509 881.9c0-0.8 0.6-1.5 1.4-1.5 0.8 0 1.5 0.7 1.5 1.5 0 0.9-0.7 1.5-1.5 1.5-0.8 0-1.4-0.6-1.4-1.5zm0.3 17.7v-14.2h2.2v14.2z"/><path fill-rule="evenodd" class="c" d="m515.2 903.2l1.1-1.6c1.1 1.4 2.6 1.9 4.6 1.9 2.3 0 4.5-1.1 4.5-4.2v-2.1c-1 1.5-2.7 2.6-4.7 2.6-3.7 0-6.3-2.8-6.3-7.4 0-4.5 2.6-7.3 6.3-7.3 1.9 0 3.6 0.9 4.7 2.5v-2.2h2.2v13.8c0 4.7-3.3 6.1-6.7 6.1-2.4 0-4.1-0.4-5.7-2.1zm10.2-7.7v-6.2c-0.7-1.2-2.4-2.3-4.2-2.3-2.8 0-4.5 2.3-4.5 5.4 0 3.1 1.7 5.4 4.5 5.4 1.8 0 3.5-1.1 4.2-2.3z"/><path class="c" d="m540.8 899.6v-9.3c0-2.5-1.2-3.3-3.1-3.3-1.8 0-3.4 1.1-4.2 2.2v10.4h-2.2v-14.2h2.2v2.1c1-1.2 2.9-2.4 5-2.4 3 0 4.5 1.5 4.5 4.5v10z"/><path fill-rule="evenodd" class="c" d="m545.9 892.5c0-4.1 2.9-7.4 6.9-7.4 4.3 0 6.8 3.3 6.8 7.6v0.5h-11.4c0.2 2.7 2 4.9 5.1 4.9 1.6 0 3.2-0.6 4.3-1.8l1.1 1.5c-1.4 1.4-3.3 2.1-5.6 2.1-4.2 0-7.2-3-7.2-7.4zm6.9-5.6c-3 0-4.5 2.5-4.6 4.7h9.3c-0.1-2.1-1.5-4.7-4.7-4.7z"/><path fill-rule="evenodd" class="c" d="m572.7 899.6v-2.1c-1.1 1.4-2.8 2.4-4.8 2.4-3.7 0-6.3-2.8-6.3-7.4 0-4.5 2.6-7.4 6.3-7.4 1.9 0 3.7 0.9 4.8 2.5v-7.6h2.2v19.6zm0-3.9v-6.4c-0.8-1.2-2.5-2.3-4.3-2.3-2.8 0-4.5 2.4-4.5 5.5 0 3.2 1.7 5.5 4.5 5.5 1.8 0 3.5-1 4.3-2.3z"/><path fill-rule="evenodd" class="c" d="m585.4 899.6v-19.6h2.2v7.6c1.1-1.6 2.8-2.5 4.8-2.5 3.6 0 6.3 2.9 6.3 7.4 0 4.6-2.7 7.4-6.3 7.4-2 0-3.8-1-4.8-2.4v2.1zm6.4-1.6c2.9 0 4.6-2.3 4.6-5.5 0-3.1-1.7-5.5-4.6-5.5-1.7 0-3.5 1.1-4.2 2.3v6.4c0.7 1.3 2.5 2.3 4.2 2.3z"/><path class="c" d="m601.1 903.1c0.3 0.2 0.8 0.3 1.2 0.3 0.9 0 1.6-0.4 2.1-1.5l0.9-2.2-5.9-14.3h2.4l4.7 11.6 4.7-11.6h2.4l-7.1 17c-0.9 2.1-2.3 2.9-4.2 2.9-0.5 0-1.2-0.1-1.6-0.2z"/></svg>