<svg version="1.2" xmlns="http://www.w3.org/2000/svg" viewBox="0 0 100 100" width="300" height="300"><style>.a{fill:#196790}.b{fill:#6ec0e2}.c{fill:#75d0f6}.d{fill:#49bae2}.e{fill:#abe0f9}.f{fill:#2a96d3}.g{fill:#62b7e6}.h{fill:#f6aa37}.i{fill:#f68c35}.j{fill:#dde6da}.k{fill:#f9fcff}.l{fill:#ffd633}.m{fill:#fdbe36}.n{fill:#fff}</style><g style="display:none"><path class="a" d="m-149.9-83.2h400v266.7h-400z"/></g><g style="opacity:.5;mix-blend-mode:multiply"></g><g style="opacity:.5;mix-blend-mode:multiply"></g><g style="opacity:.5;mix-blend-mode:multiply"></g><g style="opacity:.5;mix-blend-mode:multiply"></g><path class="b" d="m50.1 88.7c-26.1 0-47.1-3.2-47.1-7.2 0-4 21-7.3 47.1-7.3 26 0 47 3.3 47 7.3 0 4-21 7.2-47 7.2z"/><path class="a" d="m94.9 76.3q0-0.7-0.4-1.5l-1.8-3.8c-0.6-1.3-1.9-2.1-3.3-2.1h-78.8c-1.4 0-2.7 0.8-3.3 2.1l-1.8 3.8q-0.3 0.8-0.3 1.5 0 0 0 0.1 0 0 0 0.1 0 0 0 0 0 0.1 0 0.1 0 0.1 0 0.1 0 0.1 0 0.1 0 0 0 0.1 0 0 0 0.1 0 0 0 0 0 0.1 0 0.1 0 0.1 0 0.1 0 0 0 0.1 0 0 0 0.1 0 0 0 0.1 0 0 0 0 0 0.1 0 0.1 0 0.1 0 0.1 0 0 0 0.1 0 0 0 0.1 0 0 0 0.1 0 0 0 0 0 0.1 0 0.1 0 0.1 0 0.1 0 0 0 0.1 0 0 0 0.1 0 0 0 0 0 0.1 0 0.1 0 0.1 0 0.1 0 0.1 0 0.1 0 0 0 0.1 0 0 0 0.1 0 0 0 0 0 0.1 0 0.1 0 0.1 0 0.1 0 0.1 0 0.1 0 0 0 0.1 0 0 0 0.1 0 0 0 0 0 0.1 0 0.1 0 0.1 0 0.1c-0.1 2 1.4 3.9 3.6 3.9h82.4c2.2 0 3.8-1.9 3.7-3.9q0 0 0-0.1 0 0 0-0.1 0 0 0 0 0-0.1 0-0.1 0-0.1 0-0.1 0 0 0-0.1 0 0 0-0.1 0 0 0-0.1 0 0 0 0 0-0.1 0-0.1 0-0.1 0-0.1 0 0 0-0.1 0 0 0-0.1 0 0 0-0.1 0 0 0 0 0-0.1 0-0.1 0-0.1 0-0.1 0 0 0-0.1 0 0 0-0.1 0 0 0 0 0-0.1 0-0.1 0-0.1 0-0.1 0-0.1 0-0.1 0 0 0-0.1 0 0 0-0.1 0 0 0 0 0-0.1 0-0.1 0-0.1 0-0.1 0-0.1 0-0.1 0 0 0-0.1 0 0 0-0.1 0 0 0 0 0-0.1 0-0.1 0-0.1 0-0.1 0 0 0-0.1 0 0 0-0.1 0 0 0-0.1 0 0 0 0 0-0.1 0-0.1 0-0.1 0-0.1z"/><path class="a" d="m8.3 64.9v-49.2c0-2.3 1.4-4.1 3-4.1h77.4c1.7 0 3 1.8 3 4.1v49.1c0 2.3-1.3 4.2-3 4.2h-77.4c-1.6 0-3-1.9-3-4.1z"/><path class="c" d="m10.7 63.4v-46.3c0-1.5 1-2.8 2.2-2.8h74.3c1.2 0 2.1 1.3 2.1 2.8v46.3c0 1.6-0.9 2.9-2.1 2.9h-74.3c-1.2 0-2.2-1.3-2.2-2.9z"/><path class="d" d="m87.2 66.3h-74.3c-0.7 0-1.3-0.5-1.7-1.1 25-10.6 47.8-28.9 68.4-50.9h7.6c1.2 0 2.1 1.3 2.1 2.8v46.3c0 1.6-0.9 2.9-2.1 2.9z"/><path class="e" d="m20.5 32.1c-3.2 3.4-6.3 7.1-8.5 11.7q-0.7 1.4-1.3 2.9v-29.6c0-1.5 1-2.8 2.2-2.8h28.3c-7.4 4.8-14.3 11-20.7 17.8z"/><path class="f" d="m8.8 80.1h82.4c2.7 0 4.5-2.8 3.3-5.3l-1.8-3.8c-0.6-1.3-1.9-2.1-3.3-2.1h-78.8c-1.4 0-2.7 0.8-3.3 2.1l-1.8 3.8c-1.1 2.5 0.6 5.3 3.3 5.3z"/><path class="g" d="m9.4 70.7h81.3l-0.7-1q-0.2-0.2-0.4-0.2h-79.1q-0.3 0-0.4 0.2z"/><path class="g" d="m8.4 72.6h83.3l-0.7-1.1q-0.2-0.2-0.4-0.2h-81.1q-0.3 0-0.4 0.2z"/><path class="g" d="m7.3 74.4h85.4l-0.7-1q-0.2-0.2-0.4-0.2h-83.1q-0.3 0-0.5 0.2z"/><path class="g" d="m6.5 76.2h87.1l-0.8-1q-0.1-0.2-0.4-0.2h-84.8q-0.2 0-0.4 0.2z"/><path class="f" d="m10.2 76.8l-0.6-0.3 3.7-7.4 0.7 0.3z"/><path class="f" d="m15.2 76.8l-0.7-0.3 3.8-7.4 0.7 0.3z"/><path class="f" d="m20.1 76.8l-0.6-0.3 3.7-7.4 0.7 0.3z"/><path class="f" d="m25.1 76.8l-0.7-0.3 3.8-7.4 0.7 0.3z"/><path class="f" d="m30.1 76.8l-0.7-0.3 3.8-7.4 0.6 0.3z"/><path class="f" d="m35 76.8l-0.7-0.3 3.8-7.4 0.7 0.3z"/><path class="f" d="m40 76.8l-0.7-0.3 3.8-7.4 0.6 0.3z"/><path class="f" d="m46.4 76.7l-0.7-0.1 1-7.4 0.8 0.1z"/><path class="f" d="m88.2 76.8l-3.7-7.4 0.6-0.3 3.8 7.4z"/><path class="f" d="m83.3 76.8l-3.8-7.4 0.7-0.3 3.8 7.4z"/><path class="f" d="m78.3 76.8l-3.7-7.4 0.6-0.3 3.8 7.4z"/><path class="f" d="m73.4 76.8l-3.8-7.4 0.7-0.3 3.7 7.4z"/><path class="f" d="m68.4 76.8l-3.8-7.4 0.7-0.3 3.8 7.4z"/><path class="f" d="m63.4 76.8l-3.7-7.4 0.7-0.3 3.7 7.4z"/><path class="f" d="m58.5 76.8l-3.8-7.4 0.7-0.3 3.8 7.4z"/><path class="f" d="m52.1 76.7l-1.4-7.4 0.7-0.2 1.5 7.5z"/><path class="g" d="m39.4 79.2h21.2l-1.2-2.5h-18.8z"/><path class="h" d="m50.3 28.8l-1.6 2.1c-0.2 0.3-0.6 0.5-1 0.5h-9.8c-0.8 0-1.4 0.7-1.3 1.5l0.8 14.7c0 0.7 0.6 1.3 1.3 1.3h22.6c0.7 0 1.2-0.6 1.3-1.3l0.8-17.8c0-0.8-0.6-1.5-1.3-1.5h-10.7c-0.4 0-0.8 0.2-1.1 0.5z"/><path class="i" d="m50.3 30.9l-1.6 2.1c-0.2 0.3-0.6 0.5-1 0.5h-9.8c-0.8 0-1.4 0.7-1.3 1.5l0.8 14.7c0 0.7 0.6 1.3 1.3 1.3h22.6c0.7 0 1.2-0.6 1.3-1.3l0.8-17.8c0-0.8-0.6-1.5-1.3-1.5h-10.7c-0.4 0-0.8 0.2-1.1 0.5z"/><path class="j" d="m60.4 41.1l-21.5-1.3c-0.2 0-0.4-0.2-0.4-0.4l0.4-6.6c0-0.2 0.2-0.4 0.4-0.4l21.5 1.4c0.2 0 0.4 0.2 0.4 0.4l-0.4 6.5c0 0.3-0.2 0.4-0.4 0.4z"/><path class="k" d="m38 33.7h22.4v7.3h-22.4z"/><path class="l" d="m50.4 32.1l-1.7 2.1c-0.3 0.3-0.7 0.5-1.1 0.5h-10.5c-0.8 0-1.4 0.7-1.4 1.5l0.9 14.7c0 0.7 0.6 1.3 1.4 1.3h23.9c0.8 0 1.4-0.6 1.4-1.4l0.9-17.8c0.1-0.8-0.6-1.4-1.4-1.4h-11.4c-0.4 0-0.8 0.1-1 0.5z"/><path class="m" d="m63.3 50.8l0.9-17.8c0-0.5-0.2-1-0.6-1.2-2.9 4.4-6.6 8.3-10.9 11.5-4.8 3.6-10.2 6.3-15.9 8.2 0.3 0.4 0.7 0.7 1.2 0.7h23.9c0.8 0 1.4-0.6 1.4-1.4z"/><path class="n" d="m50.5 18.6c0-0.5-0.4-0.8-0.8-0.8-0.4 0-0.8 0.3-0.8 0.8 0 0.5 0 1 0 1.5q0 0.3 0 0.5c0 0.5 0.4 0.8 0.8 0.8 0.4 0 0.7-0.3 0.7-0.8q0-0.2 0-0.5c0.1-0.5 0.1-1 0.1-1.5z"/><path class="n" d="m50.5 59.6c0-0.5-0.4-0.7-0.8-0.7-0.4 0-0.8 0.2-0.8 0.7 0 0.5 0 1.1 0 1.5q0 0.3 0 0.6c0 0.5 0.4 0.7 0.8 0.7 0.4 0 0.7-0.2 0.7-0.7q0-0.3 0-0.6c0.1-0.4 0.1-1 0.1-1.5z"/><path class="n" d="m65.5 25.5c0.3-0.4 0.2-0.9 0-1.2-0.3-0.2-0.8-0.3-1.1 0-0.4 0.4-0.8 0.7-1.1 1.1q-0.2 0.2-0.4 0.4c-0.3 0.4-0.2 0.8 0 1.1 0.3 0.2 0.8 0.3 1.1 0q0.2-0.2 0.4-0.4c0.4-0.3 0.7-0.7 1.1-1z"/><path class="n" d="m36.4 54.5c0.4-0.4 0.3-0.8 0-1.1-0.3-0.3-0.7-0.4-1.1 0-0.3 0.3-0.7 0.6-1 1q-0.2 0.2-0.4 0.4c-0.4 0.4-0.3 0.8 0 1.1 0.3 0.3 0.7 0.4 1.1 0q0.2-0.2 0.4-0.4c0.4-0.3 0.7-0.7 1-1z"/><path class="n" d="m71.2 40.9c0.5 0 0.8-0.4 0.8-0.8 0-0.4-0.3-0.8-0.8-0.8-0.5 0-1 0-1.5 0.1q-0.3 0-0.5 0c-0.5 0-0.8 0.3-0.8 0.7 0 0.4 0.3 0.8 0.8 0.8q0.2 0 0.5 0c0.5 0 1 0 1.5 0z"/><path class="n" d="m30.2 40.9c0.5 0 0.7-0.4 0.7-0.8 0-0.4-0.2-0.8-0.7-0.8-0.5 0-1 0-1.5 0.1q-0.3 0-0.6 0c-0.5 0-0.7 0.3-0.7 0.7 0 0.4 0.2 0.8 0.7 0.8q0.3 0 0.6 0c0.5 0 1 0 1.5 0z"/><path class="n" d="m64.4 55.9c0.3 0.4 0.8 0.3 1.1 0 0.2-0.3 0.3-0.8 0-1.1-0.4-0.4-0.7-0.8-1.1-1.1q-0.2-0.2-0.4-0.3c-0.3-0.4-0.8-0.3-1.1 0-0.2 0.2-0.3 0.7 0 1q0.2 0.2 0.4 0.4c0.3 0.4 0.7 0.8 1.1 1.1z"/><path class="n" d="m35.3 26.9c0.4 0.3 0.8 0.2 1.1 0 0.3-0.3 0.4-0.8 0-1.2-0.3-0.3-0.6-0.7-1-1q-0.2-0.2-0.4-0.4c-0.4-0.3-0.8-0.2-1.1 0-0.3 0.3-0.4 0.7 0 1.1q0.2 0.2 0.4 0.4c0.3 0.4 0.7 0.7 1 1.1z"/><g style="display:none"><path class="n" d="m55.5 165q-0.3 0.4-0.6 0.8l-0.2-0.1c-0.1-0.2-0.2-0.3-0.4-0.3-0.1 0.1-0.3 0.2-0.3 0.4 0.1 0.2 0.2 0.3 0.4 0.3q0.1 0 0.1 0l0.2 0.1q-0.2 0.4-0.2 0.9l0.4 0.1c0.1-0.7 0.4-1.4 0.9-1.9z"/><path class="n" d="m58.4 163.8q-0.1 0-0.2 0l-0.1-0.3q0.2-0.1 0.2-0.3c0-0.3-0.2-0.4-0.4-0.4-0.3 0-0.4 0.2-0.4 0.4q0.1 0.3 0.2 0.3l0.1 0.4q-0.6 0.1-1.1 0.3l0.2 0.4q0.7-0.4 1.5-0.4 0.4 0 0.8 0.1l0.1-0.4q-0.4-0.1-0.9-0.1z"/><path class="n" d="m62 165.2c0.1 0 0.3-0.2 0.3-0.4-0.1-0.2-0.2-0.3-0.4-0.3-0.2 0.1-0.3 0.2-0.3 0.4l-0.2 0.2q-0.3-0.4-0.8-0.6l-0.2 0.3c0.6 0.4 1.1 0.9 1.4 1.6l0.4-0.2q-0.2-0.5-0.5-0.8l0.2-0.2q0 0 0.1 0z"/><path class="n" d="m58.2 169.3q-0.4 0-0.7 0-0.7 0-1.3-0.1-0.3-0.1-0.7-0.2c0.6 1 1.7 1.7 2.9 1.7 1.5 0 2.8-1 3.2-2.4q-0.6 0.4-1.3 0.6c-0.7 0.2-1.4 0.3-2.1 0.4z"/><path fill-rule="evenodd" class="n" d="m61.7 167.4q0 0.2 0 0.3c-0.7 0.7-2 1.1-3.6 1.2-1.4 0-2.5-0.2-2.8-0.4q-0.1-0.4-0.1-0.7c0-1.7 1.5-3.2 3.2-3.2 1.7 0 3.1 1.2 3.3 2.8zm-3.4-0.3c0-0.5-0.5-1-1-1-0.5 0-1 0.5-1 1 0 0.6 0.5 1 1 1 0.5 0 1-0.4 1-1zm2.2-0.2c0-0.4-0.3-0.7-0.7-0.7-0.4 0-0.7 0.3-0.7 0.7 0 0.4 0.3 0.7 0.7 0.7 0.4 0 0.7-0.3 0.7-0.7z"/><path class="n" d="m67 165.6c-0.2 0-0.4-0.1-0.8-0.1-0.2 0-0.4 0.2-0.4 0.5v0.5h1.2v0.9h-1.2v2.9h-1v-2.9h-0.7v-0.9h0.7v-0.5c0-0.9 0.4-1.5 1.3-1.5q0.5 0 0.9 0.2z"/><path class="n" d="m69.5 167.4q-0.2 0-0.3 0c-0.5 0-0.8 0.3-0.8 0.8v2.1h-1v-3.8h1v0.4q0.3-0.5 1.1-0.5c0.2 0 0.4 0.1 0.5 0.2z"/><path fill-rule="evenodd" class="n" d="m73.6 168.4c0 0.1 0 0.3 0 0.4h-2.8c0.2 0.5 0.5 0.7 1 0.7 0.4 0 0.7-0.1 1-0.3l0.6 0.6q-0.7 0.6-1.6 0.6c-1.2 0-2-0.8-2-2 0-1.2 0.8-2 1.9-2 1.1 0 1.9 0.8 1.9 2zm-2.7-0.4h1.6c0-0.4-0.3-0.7-0.8-0.7-0.5 0-0.8 0.3-0.8 0.7z"/><path fill-rule="evenodd" class="n" d="m77.7 168.4c0 0.1 0 0.3-0.1 0.4h-2.7c0.1 0.5 0.5 0.7 1 0.7 0.3 0 0.7-0.1 1-0.3l0.6 0.6q-0.7 0.6-1.6 0.6c-1.2 0-2-0.8-2-2 0-1.2 0.8-2 1.9-2 1.1 0 1.9 0.8 1.9 2zm-2.8-0.4h1.7c-0.1-0.4-0.4-0.7-0.8-0.7-0.5 0-0.8 0.3-0.9 0.7z"/><path fill-rule="evenodd" class="n" d="m82.1 168.4c0 1.2-0.8 2-1.8 2-0.6 0-0.9-0.2-1.2-0.5v2h-1v-5.4h1v0.4c0.3-0.3 0.6-0.5 1.2-0.5 1 0 1.8 0.9 1.8 2zm-1 0c0-0.6-0.5-1-1-1-0.6 0-1 0.4-1 1 0 0.6 0.4 1.1 1 1.1 0.5 0 1-0.5 1-1.1z"/><path class="n" d="m83.1 165.9c-0.4 0-0.6-0.3-0.6-0.7 0-0.3 0.2-0.6 0.6-0.6 0.4 0 0.7 0.3 0.7 0.6 0 0.4-0.3 0.7-0.7 0.7zm-0.5 0.6h1v3.8h-1z"/><path class="n" d="m85.4 167.9l1.4-1.4h1.3l-1.9 1.8 1.9 2h-1.3l-1.4-1.5v1.5h-1.1v-5.7h1.1z"/><path fill-rule="evenodd" class="n" d="m15.2 170.3v-0.6c-0.3 0.4-0.8 0.7-1.3 0.7-1 0-1.7-0.8-1.7-2 0-1.2 0.7-2 1.7-2 0.5 0 0.9 0.3 1.3 0.7v-2h0.5v5.2zm0-1v-1.7c-0.2-0.4-0.6-0.7-1.1-0.7-0.8 0-1.2 0.7-1.2 1.5 0 0.8 0.4 1.5 1.2 1.5 0.5 0 0.9-0.3 1.1-0.6z"/><path fill-rule="evenodd" class="n" d="m16.5 168.4c0-1.1 0.8-2 1.9-2 1.1 0 1.8 0.9 1.8 2v0.2h-3.1c0.1 0.7 0.6 1.3 1.4 1.3 0.4 0 0.8-0.2 1.1-0.5l0.3 0.4q-0.5 0.6-1.5 0.6c-1.1 0-1.9-0.8-1.9-2zm1.8-1.5c-0.8 0-1.2 0.7-1.2 1.3h2.5c0-0.6-0.4-1.3-1.3-1.3z"/><path class="n" d="m20.6 169.8l0.3-0.4c0.2 0.3 0.7 0.5 1.2 0.5 0.6 0 0.9-0.3 0.9-0.6 0-1-2.3-0.4-2.3-1.8 0-0.6 0.5-1.1 1.4-1.1 0.6 0 1.1 0.3 1.4 0.6l-0.3 0.4c-0.2-0.3-0.6-0.5-1.1-0.5-0.5 0-0.8 0.3-0.8 0.6 0 0.8 2.3 0.3 2.3 1.7 0 0.7-0.5 1.2-1.5 1.2q-0.9 0-1.5-0.6z"/><path class="n" d="m24.6 166c-0.2 0-0.3-0.2-0.3-0.4 0-0.2 0.1-0.4 0.3-0.4 0.3 0 0.4 0.2 0.4 0.4 0 0.2-0.1 0.4-0.4 0.4zm-0.2 0.5h0.5v3.8h-0.5z"/><path fill-rule="evenodd" class="n" d="m25.9 171.3l0.3-0.5c0.3 0.4 0.7 0.5 1.2 0.5 0.7 0 1.2-0.3 1.2-1.1v-0.5c-0.2 0.3-0.7 0.6-1.2 0.6-1 0-1.7-0.7-1.7-1.9 0-1.2 0.7-2 1.7-2 0.5 0 0.9 0.3 1.2 0.7v-0.6h0.6v3.7c0 1.2-0.8 1.6-1.8 1.6-0.6 0-1-0.1-1.5-0.5zm2.7-2.1v-1.6c-0.2-0.4-0.6-0.7-1.1-0.7-0.7 0-1.2 0.6-1.2 1.5 0 0.8 0.5 1.4 1.2 1.4 0.5 0 0.9-0.3 1.1-0.6z"/><path class="n" d="m32.8 170.3v-2.5c0-0.6-0.4-0.9-0.9-0.9-0.5 0-0.9 0.3-1.1 0.6v2.8h-0.6v-3.8h0.6v0.6c0.3-0.4 0.8-0.7 1.3-0.7q1.2 0 1.2 1.2v2.7z"/><path fill-rule="evenodd" class="n" d="m34.1 168.4c0-1.1 0.8-2 1.9-2 1.1 0 1.8 0.9 1.8 2v0.2h-3.1c0.1 0.7 0.6 1.3 1.4 1.3 0.4 0 0.8-0.2 1.1-0.5l0.3 0.4q-0.5 0.6-1.5 0.6c-1.1 0-1.9-0.8-1.9-2zm1.8-1.5c-0.8 0-1.2 0.7-1.2 1.3h2.5c0-0.6-0.4-1.3-1.3-1.3z"/><path fill-rule="evenodd" class="n" d="m41.3 170.3v-0.6c-0.3 0.4-0.8 0.7-1.3 0.7-1 0-1.7-0.8-1.7-2 0-1.2 0.7-2 1.7-2 0.5 0 0.9 0.3 1.3 0.7v-2h0.5v5.2zm0-1v-1.7c-0.2-0.4-0.6-0.7-1.1-0.7-0.8 0-1.2 0.7-1.2 1.5 0 0.8 0.4 1.5 1.2 1.5 0.5 0 0.9-0.3 1.1-0.6z"/><path fill-rule="evenodd" class="n" d="m44.6 170.3v-5.2h0.6v2c0.3-0.4 0.8-0.7 1.3-0.7 1 0 1.7 0.8 1.7 2 0 1.2-0.7 2-1.7 2-0.5 0-1-0.3-1.3-0.7v0.6zm1.7-0.4c0.8 0 1.3-0.7 1.3-1.5 0-0.8-0.5-1.5-1.3-1.5-0.4 0-0.9 0.3-1.1 0.7v1.7c0.2 0.3 0.7 0.6 1.1 0.6z"/><path class="n" d="m48.8 171.2c0.1 0.1 0.2 0.1 0.3 0.1 0.3 0 0.5-0.1 0.6-0.4l0.2-0.6-1.5-3.8h0.6l1.3 3.1 1.2-3.1h0.7l-1.9 4.6c-0.3 0.5-0.6 0.7-1.1 0.7-0.2 0-0.4 0-0.5 0z"/></g></svg>